<svg width="40" height="40" viewBox="0 0 40 40" fill="none" xmlns="http://www.w3.org/2000/svg">
<circle cx="20" cy="20" r="19.5" stroke="white"/>
<g clip-path="url(#clip0)">
<path d="M29.8808 15.4042L27.3808 11.2375C27.3068 11.1142 27.2021 11.0122 27.077 10.9414C26.9518 10.8706 26.8105 10.8334 26.6667 10.8333H13.3333C13.1895 10.8334 13.0482 10.8706 12.9231 10.9414C12.7979 11.0122 12.6932 11.1142 12.6192 11.2375L10.1192 15.4042C10.0412 15.5338 10.0001 15.6821 10 15.8333C9.99846 16.7154 10.3472 17.562 10.9696 18.1871C11.592 18.8121 12.4371 19.1645 13.3192 19.1667H13.3258C14.149 19.1688 14.9434 18.8643 15.5542 18.3125C16.1632 18.8629 16.9549 19.1677 17.7758 19.1677C18.5968 19.1677 19.3885 18.8629 19.9975 18.3125C20.6068 18.8641 21.3994 19.1696 22.2213 19.1696C23.0432 19.1696 23.8357 18.8641 24.445 18.3125C24.9233 18.744 25.5166 19.0273 26.1528 19.1281C26.7891 19.2289 27.4409 19.1428 28.0291 18.8803C28.6174 18.6178 29.1168 18.1901 29.4666 17.6492C29.8165 17.1083 30.0018 16.4775 30 15.8333C30 15.6821 29.9588 15.5338 29.8808 15.4042Z" fill="white"/>
<path d="M26.68 20.8333C25.9054 20.8339 25.1412 20.6548 24.4475 20.31L24.435 20.3158C23.8495 20.6078 23.2119 20.7809 22.5592 20.8253C21.9064 20.8696 21.2513 20.7843 20.6317 20.5742C20.4149 20.5013 20.2033 20.4139 19.9983 20.3125L19.9892 20.3167C19.4038 20.6088 18.7664 20.782 18.1137 20.8262C17.461 20.8704 16.806 20.7847 16.1867 20.5742C15.9702 20.5013 15.7589 20.4139 15.5542 20.3125C14.8617 20.6563 14.0989 20.8346 13.3258 20.8333C13.049 20.8307 12.7728 20.8056 12.5 20.7583V29.1667C12.5 29.3877 12.5878 29.5996 12.7441 29.7559C12.9004 29.9122 13.1123 30 13.3333 30H18.3333V25H21.6667V30H26.6667C26.8877 30 27.0996 29.9122 27.2559 29.7559C27.4122 29.5996 27.5 29.3877 27.5 29.1667V20.755C27.2293 20.8035 26.955 20.8297 26.68 20.8333Z" fill="white"/>
</g>
<defs>
<clipPath id="clip0">
<rect x="10" y="10" width="20" height="20" fill="white"/>
</clipPath>
</defs>
</svg>
