<svg width="40" height="40" viewBox="0 0 40 40" fill="none" xmlns="http://www.w3.org/2000/svg">
<circle cx="20" cy="20" r="19.5" stroke="white"/>
<path d="M13.6669 10.0361L10.604 13.099C10.2704 13.4326 10.2704 13.9735 10.604 14.307C10.9376 14.6406 11.4784 14.6406 11.812 14.307L14.8749 11.2441C15.2085 10.9106 15.2085 10.3697 14.8749 10.0361C14.5413 9.70255 14.0005 9.70255 13.6669 10.0361Z" fill="white"/>
<path d="M29.396 13.0986L26.3331 10.0357C25.9995 9.70213 25.4586 9.70213 25.1251 10.0357C24.7915 10.3693 24.7915 10.9101 25.1251 11.2437L28.188 14.3066C28.5215 14.6402 29.0624 14.6402 29.396 14.3066C29.7295 13.973 29.7295 13.4322 29.396 13.0986Z" fill="white"/>
<path d="M26.1508 25.3489C27.3152 24.1426 28.0988 22.6203 28.404 20.9718C28.7093 19.3232 28.5226 17.6213 27.8674 16.0781C27.2121 14.5349 26.1172 13.2186 24.7191 12.2934C23.321 11.3681 21.6815 10.8747 20.0049 10.8747C18.3283 10.8747 16.6888 11.3681 15.2907 12.2934C13.8926 13.2186 12.7977 14.5349 12.1424 16.0781C11.4872 17.6213 11.3005 19.3232 11.6058 20.9718C11.911 22.6203 12.6947 24.1426 13.859 25.3489L11.6296 28.3155C11.5623 28.4052 11.5133 28.5073 11.4855 28.616C11.4576 28.7246 11.4515 28.8377 11.4673 28.9488C11.4832 29.0598 11.5208 29.1667 11.5779 29.2632C11.6351 29.3597 11.7107 29.444 11.8004 29.5113C11.8902 29.5786 11.9923 29.6276 12.1009 29.6554C12.2096 29.6833 12.3227 29.6894 12.4337 29.6736C12.5448 29.6577 12.6516 29.6201 12.7481 29.563C12.8447 29.5058 12.929 29.4302 12.9963 29.3405L15.1565 26.4593C16.5794 27.4454 18.2694 27.9738 20.0006 27.9738C21.7318 27.9738 23.4218 27.4454 24.8447 26.4593L27.005 29.3405C27.0723 29.4302 27.1566 29.5058 27.2531 29.563C27.3497 29.6201 27.4565 29.6577 27.5675 29.6736C27.6786 29.6894 27.7917 29.6833 27.9003 29.6554C28.009 29.6276 28.1111 29.5786 28.2008 29.5113C28.2906 29.444 28.3662 29.3597 28.4233 29.2632C28.4805 29.1667 28.5181 29.0598 28.5339 28.9488C28.5498 28.8377 28.5436 28.7246 28.5158 28.616C28.488 28.5073 28.439 28.4052 28.3717 28.3155L26.1508 25.3489ZM25.1258 19.4319C25.1258 19.9037 24.7433 20.2861 24.2716 20.2861H20.1464C19.5942 20.2861 19.1464 19.8384 19.1464 19.2861V15.161C19.1464 14.6892 19.5289 14.3068 20.0006 14.3068C20.4724 14.3068 20.8548 14.6892 20.8548 15.161V18.5777H24.2716C24.7433 18.5777 25.1258 18.9601 25.1258 19.4319Z" fill="white"/>
</svg>
