<svg width="151" height="58" viewBox="0 0 151 58" fill="none" xmlns="http://www.w3.org/2000/svg">
<path d="M148.317 14.5703C146.791 13.0297 144.746 12.1184 142.582 12.0099L141.673 11.9665C141.532 11.9556 141.402 11.9556 141.262 11.9556C139.801 11.9556 90.4449 11.6952 89.3086 11.6952C88.9515 11.6952 88.6052 11.7386 88.259 11.7603C87.9668 9.04803 86.8197 6.5744 84.9368 4.69749C83.3894 3.1352 80.6408 1.27998 76.388 1.27998C74.1588 1.27998 72.0595 1.84414 70.1658 2.91821C67.2549 1.05215 63.8029 -0.119572 59.8856 0.108262C48.7397 0.748367 42.2469 9.42775 42.2469 9.42775C42.2469 9.42775 42.2469 1.83329 26.7184 0.108262C22.9851 -0.304009 19.4357 0.56393 16.2326 1.47527C12.9646 2.39745 10.5406 5.14231 10.032 8.50557L9.9238 9.06973C9.68573 10.6429 9.88051 12.2486 10.4757 13.7024C9.71819 15.6227 8.47375 18.476 6.39606 22.6747C3.39857 28.7177 1.46157 33.0791 0.455188 36.0192C-0.681046 39.3608 0.314511 43.0495 2.96572 45.3713C5.47626 47.5628 8.1924 48.6803 11.0276 48.6803C14.3605 48.6803 25.29 48.8105 28.558 48.8105C30.9279 48.8105 33.3735 48.2355 35.9057 47.0854C37.1176 46.5213 38.2647 45.8269 39.3577 45.0458C39.3577 45.1434 39.3468 45.2411 39.3468 45.3387C39.3468 49.2987 41.1432 52.9006 44.2705 55.2115C46.7053 57.045 49.7352 58.0106 53.0249 58.0106C56.8881 58.0106 63.9652 56.6979 68.9863 48.2246C70.1766 48.6043 116.719 48.7671 117.141 48.7237C117.747 51.5662 119.457 54.0615 122.054 55.7648C122.086 55.7865 122.119 55.8082 122.162 55.8299C124.402 57.2512 126.988 57.9998 129.65 57.9998C137.582 57.9998 147.57 53.2804 150.103 30.8658C150.254 29.629 150.406 28.1861 150.568 26.5153C150.698 25.1374 150.784 24.2587 150.838 23.803C150.936 22.9893 150.99 22.1973 150.99 21.4596C151.001 17.9986 149.54 15.8071 148.317 14.5703Z" fill="white"/>
<path d="M12.4228 39.0355C12.2172 39.6756 11.7627 39.9903 11.0377 39.9903C10.3451 39.9903 9.55518 39.5997 8.65702 38.8186C9.52272 36.269 11.3515 32.1788 14.1542 26.5372C16.9569 20.8631 18.7749 16.6319 19.6081 13.8219C19.7272 13.3554 19.7813 13.0408 19.7813 12.8672C19.7813 12.4332 19.4675 11.7714 18.829 10.8709L18.4827 10.3936L18.5693 9.82941C21.0257 9.13506 23.731 8.78789 26.7069 8.78789L29.3473 8.96148C29.6611 9.39544 29.91 10.0572 30.0831 10.9577C30.5484 13.1601 30.7757 18.8126 30.7757 27.9259C30.7757 31.4519 31.0787 33.9473 31.6847 35.3902C31.9119 35.9435 32.15 36.2147 32.3772 36.2147C32.6045 36.2147 33.3187 35.9218 34.4982 35.3468L35.0609 35.0864L35.9266 36.6487C34.8337 37.7228 33.6 38.569 32.2474 39.2091C30.9164 39.8167 29.6936 40.1205 28.5682 40.1205C25.6572 40.1205 24.1964 37.853 24.1964 33.3072V29.8788C23.4497 29.7052 22.3026 29.6184 20.7768 29.6184C19.251 29.6184 17.5737 29.7595 15.7558 30.0524C14.3165 33.4048 13.202 36.3992 12.4228 39.0355ZM24.2829 26.9278L24.3262 21.8938C24.3262 17.4998 24.1423 14.5163 23.7635 12.954C23.5363 12.954 23.3631 12.9865 23.2441 13.0408C22.4325 15.2649 21.675 17.1635 20.95 18.7258C20.2574 20.2555 19.4891 21.9046 18.6559 23.673C17.8443 25.4089 17.3465 26.4938 17.1409 26.9278H24.2829Z" fill="black"/>
<path d="M53.0459 49.3206C51.6066 49.3206 50.4055 48.9626 49.4532 48.2357C48.5009 47.5414 48.0248 46.5758 48.0248 45.3281C48.0248 41.9974 51.4119 39.8167 58.1968 38.7752C58.4565 37.8204 58.6621 36.8983 58.8028 35.9978C57.4718 36.8115 56.0758 37.2129 54.6041 37.2129C51.9205 37.2129 49.7562 36.2473 48.1114 34.3053C46.4665 32.3416 45.6441 29.792 45.6441 26.6674C45.6441 23.5428 46.2501 20.6461 47.4621 17.988C48.6741 15.33 50.4055 13.1276 52.6563 11.3917C54.9396 9.65583 57.3419 8.78789 59.8849 8.78789C62.4496 8.78789 64.5489 9.42799 66.1613 10.6974C67.8061 11.945 68.6285 13.529 68.6285 15.471C68.6285 16.6319 68.4229 17.5649 68.0225 18.2918C67.7953 18.3244 67.4706 18.3352 67.0702 18.3352C64.8519 18.3352 63.1746 17.9772 62.0492 17.2503L62.0925 12.5634C61.3999 11.9559 60.4909 11.6521 59.3655 11.6521C57.6016 11.6521 56.0434 13.0082 54.6907 15.7314C53.338 18.422 52.6563 21.7093 52.6563 25.5825C52.6563 28.1538 53.0783 30.0524 53.9116 31.2675C54.7448 32.4826 55.7404 33.0902 56.8982 33.0902C58.6296 33.0902 60.1879 32.2222 61.573 30.4864C62.9582 28.7505 63.9537 26.6783 64.5597 24.2806L66.8971 24.6712C65.8042 32.9491 64.1377 39.1223 61.9193 43.2017C59.6901 47.281 56.7359 49.3206 53.0459 49.3206ZM50.8383 45.1979C50.8383 46.0116 51.5201 46.413 52.8727 46.413C53.5653 46.413 54.3877 45.9791 55.34 45.1111C56.2923 44.2757 57.0173 43.1691 57.5042 41.813C55.8269 41.954 54.3011 42.3337 52.916 42.9413C51.5309 43.5705 50.8383 44.33 50.8383 45.1979Z" fill="black"/>
<path d="M78.2486 23.0655C78.2486 24.2806 77.859 26.3745 77.0799 29.358C76.3008 32.309 75.9112 34.251 75.9112 35.1732C75.9112 36.0737 76.0411 36.5185 76.3008 36.5185C76.4739 36.5185 77.134 36.2473 78.2919 35.694L78.8113 35.4336L79.5472 36.9525C79.2874 37.1803 78.9412 37.4733 78.5083 37.8204C78.0755 38.1676 77.2639 38.645 76.0844 39.2525C74.9048 39.8275 73.8011 40.1205 72.7947 40.1205C71.7883 40.1205 70.9875 39.8167 70.414 39.2091C69.8405 38.569 69.5483 37.7336 69.5483 36.6921C69.5483 35.618 69.9054 33.7411 70.6304 31.0505C71.3555 28.3274 71.7126 26.5698 71.7126 25.7561C71.7126 24.541 71.3338 23.4018 70.5872 22.3277L70.1976 21.807L70.2409 21.2428C71.7667 20.8088 74.2556 20.5919 77.6859 20.5919C78.0646 21.0258 78.2486 21.8504 78.2486 23.0655ZM73.3141 15.8616C72.7406 15.2866 72.4484 14.5163 72.4484 13.5616C72.4484 12.6068 72.838 11.7714 73.6171 11.0445C74.4287 10.3176 75.3485 9.95961 76.3873 9.95961C77.4262 9.95961 78.2378 10.2525 78.8113 10.8275C79.3848 11.4026 79.677 12.1729 79.677 13.1276C79.677 14.0498 79.255 14.8743 78.4217 15.6012C77.6102 16.3281 76.7012 16.6861 75.6948 16.6861C74.6884 16.6861 73.8876 16.4041 73.3141 15.8616Z" fill="black"/>
<path d="M93.9827 21.6334C94.0368 21.5791 94.1992 21.1994 94.4589 20.5051C95.8115 20.5051 97.6295 20.9065 99.9128 21.7202C99.1878 24.1178 98.6142 26.6349 98.1814 29.2712C97.7485 31.875 97.5321 33.7411 97.5321 34.8694C97.5321 35.9652 97.6511 36.5185 97.8784 36.5185C98.0515 36.5185 98.69 36.2473 99.7829 35.694L100.302 35.4336L101.081 36.9525C100.822 37.1803 100.475 37.4733 100.043 37.8204C99.6423 38.1676 98.8631 38.645 97.7053 39.2525C96.5474 39.8275 95.5085 40.1205 94.5887 40.1205C92.8032 40.1205 91.7644 39.3068 91.4722 37.6902C89.6218 39.3068 87.9553 40.1205 86.4511 40.1205C84.9794 40.1205 83.7242 39.5455 82.6853 38.3846C81.6789 37.2237 81.1703 35.401 81.1703 32.9166C81.1703 29.0434 81.9603 25.9839 83.551 23.7598C85.1418 21.5032 87.0571 20.3749 89.3079 20.3749C90.9203 20.3749 92.4786 20.7871 93.9827 21.6334ZM89.0482 36.4317C89.7408 36.4317 90.5199 36.1605 91.3856 35.6072C91.5912 31.5279 92.2622 27.492 93.42 23.4994C92.5543 23.1197 91.8185 22.9353 91.2125 22.9353C90.1736 22.9353 89.2755 23.966 88.5288 26.0165C87.8038 28.0453 87.4467 30.2802 87.4467 32.743C87.4467 35.2058 87.9769 36.4317 89.0482 36.4317Z" fill="black"/>
<path d="M103.051 39.7299H102.229C102.229 38.3737 102.629 35.7699 103.441 31.9184C104.274 28.067 104.696 25.8863 104.696 25.3655C104.696 24.4108 104.295 23.4018 103.484 22.3277L103.094 21.807L103.138 21.2428C104.696 20.8088 107.196 20.5918 110.626 20.5918C111.005 21.0801 111.199 21.9805 111.232 23.2825C113.742 21.3404 115.863 20.3749 117.595 20.3749C118.634 20.3749 119.456 20.7329 120.062 21.4598C120.7 22.1867 121.014 23.098 121.014 24.1938C121.014 25.2679 120.679 27.1339 120.019 29.792C119.359 32.4501 119.023 34.251 119.023 35.1732C119.023 36.0737 119.142 36.5185 119.369 36.5185C119.543 36.5185 120.149 36.2473 121.187 35.694L121.707 35.4336L122.486 36.9525C122.226 37.1803 121.88 37.4733 121.447 37.8204C121.014 38.1676 120.203 38.645 119.023 39.2525C117.865 39.8275 116.826 40.1205 115.907 40.1205C113.796 40.1205 112.747 38.9162 112.747 36.5185C112.747 35.5095 113.061 33.6435 113.699 30.9203C114.359 28.1972 114.695 26.4504 114.695 25.6693C114.695 24.8881 114.446 24.4976 113.959 24.4976C113.126 24.4976 112.098 24.8556 110.886 25.5825C110.799 26.0707 110.507 27.3726 110.02 29.4882C109.013 34.034 108.505 37.2454 108.505 39.1223C107.488 39.5238 105.67 39.7299 103.051 39.7299Z" fill="black"/>
<path d="M129.314 44.2866C128.362 44.8616 127.886 45.4257 127.886 45.9791C127.886 46.5324 128.189 46.8036 128.795 46.8036C129.433 46.8036 130.137 46.4998 130.916 45.8923C131.695 45.3172 132.344 44.3625 132.864 43.0281C131.478 43.2884 130.299 43.7007 129.314 44.2866ZM142.17 20.6786C142.289 20.798 142.343 21.0584 142.343 21.4598C142.343 21.8395 142.311 22.2518 142.256 22.7183C142.202 23.1523 142.094 24.1504 141.953 25.7127C141.813 27.275 141.661 28.6311 141.521 29.792C140.049 42.8111 136.099 49.3206 129.66 49.3206C128.622 49.3206 127.669 49.0494 126.804 48.4961C125.97 47.9428 125.548 47.2376 125.548 46.3696C125.548 45.2088 126.252 44.1564 127.669 43.2016C129.087 42.2469 130.991 41.5092 133.383 40.9884C133.383 40.9559 133.47 40.5544 133.643 39.7733C133.816 38.9921 133.935 38.352 133.989 37.8638C132.258 39.1332 130.624 39.7733 129.098 39.7733C127.594 39.7733 126.36 39.1766 125.375 37.994C124.423 36.8115 123.947 34.9128 123.947 32.309C123.947 28.8915 124.715 26.0599 126.241 23.8032C127.767 21.514 129.79 20.3749 132.301 20.3749C133.718 20.3749 135.114 20.722 136.5 21.4164C137.971 20.8956 139.562 20.6352 141.261 20.6352L142.17 20.6786ZM134.249 22.9353C133.004 22.9353 132.03 23.9443 131.305 25.9731C130.58 27.9693 130.223 30.1934 130.223 32.6562C130.223 35.0864 130.775 36.3015 131.868 36.3015C132.593 36.3015 133.437 36.0303 134.422 35.477C135.233 30.6165 135.807 26.6132 136.153 23.456C135.342 23.1089 134.714 22.9353 134.249 22.9353Z" fill="black"/>
</svg>
