<svg width="40" height="40" viewBox="0 0 40 40" fill="none" xmlns="http://www.w3.org/2000/svg">
<circle cx="20" cy="20" r="19.5" stroke="white"/>
<g clip-path="url(#clip0)">
<path d="M22.0892 22.9058L20.1442 24.8225C19.1293 24.2117 18.1864 23.4885 17.3333 22.6667C16.5125 21.8135 15.7891 20.8716 15.1767 19.8583L17.0933 17.9133C17.2097 17.7955 17.2883 17.6458 17.3192 17.4831C17.3501 17.3204 17.3318 17.1522 17.2667 17L15.2667 12.3417C15.188 12.1587 15.0464 12.01 14.8676 11.9224C14.6887 11.8348 14.4844 11.8141 14.2917 11.8642L10.625 12.8333C10.4416 12.8806 10.2798 12.9888 10.1662 13.1403C10.0526 13.2918 9.994 13.4774 9.99999 13.6667C10.2332 17.9282 12.0054 21.9601 14.9875 25.0133C18.0417 27.9963 22.0754 29.7684 26.3383 30C26.5275 30.006 26.713 29.9475 26.8645 29.8341C27.0159 29.7206 27.1243 29.559 27.1717 29.3758L28.14 25.7092C28.1912 25.5159 28.1712 25.3107 28.0837 25.131C27.9962 24.9512 27.847 24.8089 27.6633 24.73L23.005 22.73C22.8522 22.6647 22.6834 22.6465 22.5202 22.6778C22.357 22.7092 22.2069 22.7886 22.0892 22.9058Z" fill="white"/>
<path d="M30 18.3333H28.3333C28.3313 16.5658 27.6283 14.8713 26.3785 13.6215C25.1287 12.3717 23.4341 11.6687 21.6666 11.6667V10C23.876 10.0024 25.9942 10.8812 27.5565 12.4435C29.1188 14.0057 29.9975 16.1239 30 18.3333Z" fill="white"/>
<path d="M26.6666 18.3333H25C25 17.4493 24.6488 16.6014 24.0236 15.9763C23.3985 15.3512 22.5507 15 21.6666 15V13.3333C22.9923 13.3347 24.2633 13.8619 25.2007 14.7993C26.1381 15.7367 26.6653 17.0077 26.6666 18.3333Z" fill="white"/>
</g>
<defs>
<clipPath id="clip0">
<rect x="10" y="10" width="20" height="20" fill="white"/>
</clipPath>
</defs>
</svg>
